<svg width="208" height="59" viewBox="0 0 208 59" fill="none" xmlns="http://www.w3.org/2000/svg">
<path d="M18.44 3.416C18.9093 3.45867 19.1653 3.58667 19.208 3.8C19.2507 3.97067 19.0373 4.03467 18.568 3.992C16.264 3.77866 14.0667 4.03466 11.976 4.76C9.88533 5.44266 8.02933 6.38133 6.408 7.576C4.82933 8.77066 3.57067 10.0293 2.632 11.352C1.736 12.6747 1.288 13.8267 1.288 14.808C1.288 16.728 2.03467 18.1573 3.528 19.096C5.02133 20.0347 6.94133 20.504 9.288 20.504C11.336 20.504 13.512 20.1627 15.816 19.48C18.12 18.7547 20.3813 17.8373 22.6 16.728C24.8187 15.576 26.824 14.3813 28.616 13.144C30.408 11.864 31.8373 10.6693 32.904 9.56C33.9707 8.45067 34.504 7.55466 34.504 6.872C34.504 6.36 34.2907 6.04 33.864 5.912C33.48 5.74133 33.032 5.656 32.52 5.656C31.112 5.656 29.4053 6.14666 27.4 7.128C25.3947 8.10933 23.24 9.45333 20.936 11.16C18.6747 12.824 16.4347 14.68 14.216 16.728C12.04 18.776 10.0347 20.888 8.2 23.064C6.408 25.1973 4.95733 27.2453 3.848 29.208C2.78133 31.1707 2.248 32.8773 2.248 34.328C2.248 35.9493 2.73867 37.1227 3.72 37.848C4.744 38.5733 5.93867 38.936 7.304 38.936C8.62667 38.936 9.97067 38.5733 11.336 37.848C12.744 37.1227 14.1093 36.184 15.432 35.032C16.7547 33.88 17.928 32.6427 18.952 31.32C20.0187 29.9973 20.8507 28.696 21.448 27.416C22.088 26.136 22.408 25.0267 22.408 24.088C22.408 23.2773 22.1733 22.744 21.704 22.488C21.2773 22.232 20.7653 22.104 20.168 22.104C18.504 22.104 16.8613 22.616 15.24 23.64C13.6187 24.6213 12.1467 25.944 10.824 27.608C9.50133 29.2293 8.43467 31.0213 7.624 32.984C6.856 34.904 6.472 36.824 6.472 38.744C6.472 39.4693 6.6 40.3013 6.856 41.24C7.112 42.1787 7.368 42.9893 7.624 43.672C7.88 44.3973 8.008 44.8453 8.008 45.016C8.05067 45.3147 8.008 45.5493 7.88 45.72C7.752 45.8907 7.56 45.8267 7.304 45.528C7.048 45.272 6.728 44.5467 6.344 43.352C5.96 42.1573 5.768 40.664 5.768 38.872C5.768 36.7387 6.152 34.648 6.92 32.6C7.73067 30.552 8.81867 28.696 10.184 27.032C11.5493 25.3253 13.128 23.9813 14.92 23C16.712 21.976 18.632 21.464 20.68 21.464C21.7467 21.464 22.6853 21.7627 23.496 22.36C24.3067 22.9147 24.712 23.7467 24.712 24.856C24.712 26.1787 24.264 27.672 23.368 29.336C22.5147 31 21.2773 32.6213 19.656 34.2C18.0773 35.736 16.2 37.016 14.024 38.04C11.8907 39.0213 9.56533 39.512 7.048 39.512C4.82933 39.512 3.18667 38.8933 2.12 37.656C1.096 36.376 0.584 34.9893 0.584 33.496C0.584 31.448 1.05333 29.336 1.992 27.16C2.97333 24.984 4.296 22.8293 5.96 20.696C7.624 18.5627 9.52267 16.5573 11.656 14.68C13.7893 12.8027 16.0507 11.16 18.44 9.752C20.872 8.30133 23.304 7.17066 25.736 6.36C28.168 5.50666 30.4933 5.08 32.712 5.08C33.224 5.08 33.7573 5.18666 34.312 5.4C34.8667 5.61333 35.144 6.01866 35.144 6.616C35.144 7.81067 34.5893 9.06933 33.48 10.392C32.4133 11.7147 30.9413 13.016 29.064 14.296C27.2293 15.5333 25.1813 16.664 22.92 17.688C20.6587 18.712 18.3333 19.544 15.944 20.184C13.5973 20.7813 11.3573 21.08 9.224 21.08C6.45067 21.08 4.25333 20.568 2.632 19.544C1.05333 18.4773 0.264 16.6853 0.264 14.168C0.264 12.8453 0.797334 11.5227 1.864 10.2C2.93067 8.83467 4.33867 7.61867 6.088 6.552C7.88 5.48533 9.84267 4.65333 11.976 4.056C14.152 3.45867 16.3067 3.24533 18.44 3.416ZM41.572 22.68C43.7053 22.68 44.772 23.704 44.772 25.752C44.772 27.3307 44.4093 28.952 43.684 30.616C42.9587 32.2373 41.9773 33.7307 40.74 35.096C39.5027 36.4187 38.1587 37.5067 36.708 38.36C35.2573 39.1707 33.7853 39.576 32.292 39.576C31.14 39.576 30.18 39.2987 29.412 38.744C28.6013 38.1467 28.196 37.1867 28.196 35.864C28.196 34.6267 28.5587 33.2613 29.284 31.768C30.0093 30.232 30.9907 28.7813 32.228 27.416C33.508 26.0507 34.9373 24.92 36.516 24.024C38.1373 23.128 39.8227 22.68 41.572 22.68ZM42.276 23.576C41.5507 23.576 40.6973 23.896 39.716 24.536C38.7347 25.176 37.732 26.008 36.708 27.032C35.684 28.056 34.724 29.1653 33.828 30.36C32.9747 31.512 32.2707 32.6427 31.716 33.752C31.204 34.8613 30.948 35.8 30.948 36.568C30.948 37.4213 31.1827 38.0187 31.652 38.36C32.1213 38.6587 32.6547 38.808 33.252 38.808C34.2333 38.808 35.3427 38.4027 36.58 37.592C37.8173 36.7387 39.012 35.672 40.164 34.392C41.316 33.112 42.2547 31.768 42.98 30.36C43.748 28.9093 44.132 27.5867 44.132 26.392C44.132 25.2827 43.94 24.536 43.556 24.152C43.172 23.768 42.7453 23.576 42.276 23.576ZM43.428 30.168C43.6413 30.168 43.7267 30.2533 43.684 30.424C43.684 30.552 43.5773 30.616 43.364 30.616C43.1933 30.616 42.9373 30.8507 42.596 31.32C42.2973 31.7467 42.02 32.1947 41.764 32.664C41.508 33.1333 41.38 33.3893 41.38 33.432C41.38 34.4133 41.7427 34.904 42.468 34.904C43.1507 34.904 43.9187 34.584 44.772 33.944C45.668 33.304 46.5213 32.5787 47.332 31.768C48.1853 30.9147 48.868 30.168 49.38 29.528L49.892 29.976C49.3373 30.616 48.6333 31.384 47.78 32.28C46.9267 33.1333 46.0307 33.9013 45.092 34.584C44.1533 35.224 43.2787 35.544 42.468 35.544C41.7853 35.544 41.316 35.3947 41.06 35.096C40.804 34.7973 40.676 34.264 40.676 33.496C40.676 32.472 41.0173 31.6613 41.7 31.064C42.4253 30.4667 43.0013 30.168 43.428 30.168ZM36.4485 58.84C35.6378 58.84 34.9978 58.584 34.5285 58.072C34.0592 57.6027 33.8245 56.9627 33.8245 56.152C33.8245 54.744 34.5498 52.76 36.0005 50.2C37.4512 47.6827 39.3712 44.6533 41.7605 41.112C44.1072 37.5707 46.6672 33.6667 49.4405 29.4C51.7445 25.8587 54.0058 22.3813 56.2245 18.968C58.4432 15.512 60.5552 12.3973 62.5605 9.624C64.5658 6.85066 66.4005 4.65333 68.0645 3.032C69.7285 1.368 71.1578 0.535999 72.3525 0.535999C73.7605 0.535999 74.4645 1.38933 74.4645 3.096C74.4645 4.46133 74.0165 6.04 73.1205 7.832C72.2672 9.624 71.1152 11.5227 69.6645 13.528C68.2138 15.4907 66.5925 17.4533 64.8005 19.416C63.0085 21.336 61.1738 23.1493 59.2965 24.856C57.4618 26.5627 55.7125 28.0347 54.0485 29.272C52.4272 30.5093 51.0192 31.4053 49.8245 31.96C49.5258 32.088 49.3552 32.024 49.3125 31.768C49.3125 31.4693 49.4618 31.256 49.7605 31.128C50.8698 30.616 52.1925 29.7627 53.7285 28.568C55.3072 27.3307 56.9712 25.88 58.7205 24.216C60.5125 22.5093 62.2618 20.696 63.9685 18.776C65.7178 16.856 67.2965 14.936 68.7045 13.016C70.1125 11.0533 71.2432 9.19733 72.0965 7.448C72.9498 5.656 73.3765 4.09866 73.3765 2.776C73.3765 2.30666 73.2698 1.92266 73.0565 1.624C72.8432 1.28267 72.5658 1.112 72.2245 1.112C71.5418 1.112 70.5605 1.90133 69.2805 3.48C68.0432 5.05867 66.5498 7.23467 64.8005 10.008C63.0512 12.7387 61.0672 15.8747 58.8485 19.416C56.6725 22.9573 54.2832 26.6693 51.6805 30.552C49.7605 33.4107 47.8405 36.2907 45.9205 39.192C44.0005 42.136 42.2512 44.8667 40.6725 47.384C39.0512 49.9013 37.7498 52.0133 36.7685 53.72C35.7872 55.4693 35.2965 56.5787 35.2965 57.048C35.2965 57.4747 35.4458 57.7733 35.7445 57.944C36.0005 58.1147 36.2992 58.2 36.6405 58.2C37.4085 58.2 38.3898 57.56 39.5845 56.28C40.7792 55 41.9952 53.2507 43.2325 51.032C44.4272 48.856 45.4512 46.3813 46.3045 43.608C47.1152 40.8347 47.5205 37.9547 47.5205 34.968C47.5205 34.4987 47.6485 34.2 47.9045 34.072C48.1178 33.944 48.2245 34.0507 48.2245 34.392C48.2245 37.5493 47.8618 40.5787 47.1365 43.48C46.4112 46.424 45.4725 49.048 44.3205 51.352C43.1258 53.656 41.8458 55.4693 40.4805 56.792C39.0725 58.1573 37.7285 58.84 36.4485 58.84ZM53.6645 35.544C52.1712 35.544 50.9338 35.288 49.9525 34.776C49.0138 34.2213 48.2672 33.56 47.7125 32.792C47.1578 32.024 46.7738 31.256 46.5605 30.488C46.3472 29.6773 46.2405 28.9947 46.2405 28.44C46.2405 27.8853 46.4112 27.4373 46.7525 27.096C47.0512 26.712 47.4138 26.52 47.8405 26.52C48.3952 26.52 48.7578 26.6907 48.9285 27.032C49.0992 27.3733 49.1845 27.672 49.1845 27.928C49.1845 28.5253 48.9498 29.0587 48.4805 29.528C47.9685 29.9973 47.6698 30.2747 47.5845 30.36C47.5845 30.36 47.6698 30.5947 47.8405 31.064C47.9685 31.5333 48.2458 32.0667 48.6725 32.664C49.0992 33.2613 49.6965 33.7947 50.4645 34.264C51.2752 34.7333 52.3418 34.968 53.6645 34.968C55.0298 34.968 56.2458 34.7333 57.3125 34.264C58.4218 33.752 59.3605 33.176 60.1285 32.536C60.9392 31.8533 61.5792 31.2133 62.0485 30.616C62.5605 30.0187 62.9018 29.6347 63.0725 29.464L63.6485 29.848C63.5205 30.0187 63.2005 30.4027 62.6885 31C62.1765 31.5973 61.4938 32.2587 60.6405 32.984C59.7872 33.6667 58.7632 34.264 57.5685 34.776C56.4165 35.288 55.1152 35.544 53.6645 35.544ZM50.136 58.84C49.3253 58.84 48.6853 58.584 48.216 58.072C47.7467 57.6027 47.512 56.9627 47.512 56.152C47.512 54.744 48.2373 52.76 49.688 50.2C51.1387 47.6827 53.0587 44.6533 55.448 41.112C57.7947 37.5707 60.3547 33.6667 63.128 29.4C65.432 25.8587 67.6933 22.3813 69.912 18.968C72.1307 15.512 74.2427 12.3973 76.248 9.624C78.2533 6.85066 80.088 4.65333 81.752 3.032C83.416 1.368 84.8453 0.535999 86.04 0.535999C87.448 0.535999 88.152 1.38933 88.152 3.096C88.152 4.46133 87.704 6.04 86.808 7.832C85.9547 9.624 84.8027 11.5227 83.352 13.528C81.9013 15.4907 80.28 17.4533 78.488 19.416C76.696 21.336 74.8613 23.1493 72.984 24.856C71.1493 26.5627 69.4 28.0347 67.736 29.272C66.1147 30.5093 64.7067 31.4053 63.512 31.96C63.2133 32.088 63.0427 32.024 63 31.768C63 31.4693 63.1493 31.256 63.448 31.128C64.5573 30.616 65.88 29.7627 67.416 28.568C68.9947 27.3307 70.6587 25.88 72.408 24.216C74.2 22.5093 75.9493 20.696 77.656 18.776C79.4053 16.856 80.984 14.936 82.392 13.016C83.8 11.0533 84.9307 9.19733 85.784 7.448C86.6373 5.656 87.064 4.09866 87.064 2.776C87.064 2.30666 86.9573 1.92266 86.744 1.624C86.5307 1.28267 86.2533 1.112 85.912 1.112C85.2293 1.112 84.248 1.90133 82.968 3.48C81.7307 5.05867 80.2373 7.23467 78.488 10.008C76.7387 12.7387 74.7547 15.8747 72.536 19.416C70.36 22.9573 67.9707 26.6693 65.368 30.552C63.448 33.4107 61.528 36.2907 59.608 39.192C57.688 42.136 55.9387 44.8667 54.36 47.384C52.7387 49.9013 51.4373 52.0133 50.456 53.72C49.4747 55.4693 48.984 56.5787 48.984 57.048C48.984 57.4747 49.1333 57.7733 49.432 57.944C49.688 58.1147 49.9867 58.2 50.328 58.2C51.096 58.2 52.0773 57.56 53.272 56.28C54.4667 55 55.6827 53.2507 56.92 51.032C58.1147 48.856 59.1387 46.3813 59.992 43.608C60.8027 40.8347 61.208 37.9547 61.208 34.968C61.208 34.4987 61.336 34.2 61.592 34.072C61.8053 33.944 61.912 34.0507 61.912 34.392C61.912 37.5493 61.5493 40.5787 60.824 43.48C60.0987 46.424 59.16 49.048 58.008 51.352C56.8133 53.656 55.5333 55.4693 54.168 56.792C52.76 58.1573 51.416 58.84 50.136 58.84ZM67.352 35.544C65.8587 35.544 64.6213 35.288 63.64 34.776C62.7013 34.2213 61.9547 33.56 61.4 32.792C60.8453 32.024 60.4613 31.256 60.248 30.488C60.0347 29.6773 59.928 28.9947 59.928 28.44C59.928 27.8853 60.0987 27.4373 60.44 27.096C60.7387 26.712 61.1013 26.52 61.528 26.52C62.0827 26.52 62.4453 26.6907 62.616 27.032C62.7867 27.3733 62.872 27.672 62.872 27.928C62.872 28.5253 62.6373 29.0587 62.168 29.528C61.656 29.9973 61.3573 30.2747 61.272 30.36C61.272 30.36 61.3573 30.5947 61.528 31.064C61.656 31.5333 61.9333 32.0667 62.36 32.664C62.7867 33.2613 63.384 33.7947 64.152 34.264C64.9627 34.7333 66.0293 34.968 67.352 34.968C68.7173 34.968 69.9333 34.7333 71 34.264C72.1093 33.752 73.048 33.176 73.816 32.536C74.6267 31.8533 75.2667 31.2133 75.736 30.616C76.248 30.0187 76.5893 29.6347 76.76 29.464L77.336 29.848C77.208 30.0187 76.888 30.4027 76.376 31C75.864 31.5973 75.1813 32.2587 74.328 32.984C73.4747 33.6667 72.4507 34.264 71.256 34.776C70.104 35.288 68.8027 35.544 67.352 35.544ZM79.6955 39.576C77.6902 39.576 76.3675 39.128 75.7275 38.232C75.0875 37.2933 74.7675 36.312 74.7675 35.288C74.7675 33.5387 75.2155 31.9173 76.1115 30.424C77.0075 28.888 78.1595 27.5227 79.5675 26.328C80.9755 25.1333 82.4262 24.216 83.9195 23.576C85.4555 22.8933 86.8208 22.552 88.0155 22.552C88.8688 22.552 89.5515 22.68 90.0635 22.936C90.5755 23.1493 90.8315 23.6187 90.8315 24.344C90.8315 25.0267 90.4262 25.752 89.6155 26.52C88.8048 27.288 87.7808 28.0347 86.5435 28.76C85.3062 29.4427 84.0048 30.0827 82.6395 30.68C81.3168 31.2347 80.1008 31.6827 78.9915 32.024C77.8822 32.3653 77.0715 32.536 76.5595 32.536C76.5595 32.536 76.5595 32.4293 76.5595 32.216C76.5595 31.96 76.5595 31.832 76.5595 31.832C76.9435 31.8747 77.6048 31.7467 78.5435 31.448C79.5248 31.1493 80.6128 30.7653 81.8075 30.296C83.0022 29.784 84.1542 29.208 85.2635 28.568C86.4155 27.928 87.3542 27.2453 88.0795 26.52C88.8475 25.7947 89.2315 25.0907 89.2315 24.408C89.2315 24.0667 89.1248 23.768 88.9115 23.512C88.7408 23.256 88.4208 23.128 87.9515 23.128C87.2688 23.128 86.4368 23.4693 85.4555 24.152C84.5168 24.792 83.5568 25.6453 82.5755 26.712C81.5942 27.7787 80.6768 28.9093 79.8235 30.104C78.9702 31.2987 78.2662 32.4507 77.7115 33.56C77.1995 34.6267 76.9435 35.5227 76.9435 36.248C76.9435 37.1013 77.1995 37.7413 77.7115 38.168C78.2235 38.5947 78.9702 38.808 79.9515 38.808C81.6582 38.808 83.2582 38.4027 84.7515 37.592C86.2875 36.7387 87.6742 35.7573 88.9115 34.648C90.1488 33.496 91.1942 32.4293 92.0475 31.448C92.9008 30.424 93.4768 29.7627 93.7755 29.464C93.7755 29.464 93.8395 29.528 93.9675 29.656C94.1382 29.784 94.2235 29.848 94.2235 29.848C93.9248 30.1893 93.3488 30.872 92.4955 31.896C91.6422 32.92 90.5755 34.0293 89.2955 35.224C88.0155 36.4187 86.5648 37.4427 84.9435 38.296C83.3222 39.1493 81.5728 39.576 79.6955 39.576ZM96.633 39.576C94.6277 39.576 93.305 39.128 92.665 38.232C92.025 37.2933 91.705 36.312 91.705 35.288C91.705 33.5387 92.153 31.9173 93.049 30.424C93.945 28.888 95.097 27.5227 96.505 26.328C97.913 25.1333 99.3637 24.216 100.857 23.576C102.393 22.8933 103.758 22.552 104.953 22.552C105.806 22.552 106.489 22.68 107.001 22.936C107.513 23.1493 107.769 23.6187 107.769 24.344C107.769 25.0267 107.364 25.752 106.553 26.52C105.742 27.288 104.718 28.0347 103.481 28.76C102.244 29.4427 100.942 30.0827 99.577 30.68C98.2543 31.2347 97.0383 31.6827 95.929 32.024C94.8197 32.3653 94.009 32.536 93.497 32.536C93.497 32.536 93.497 32.4293 93.497 32.216C93.497 31.96 93.497 31.832 93.497 31.832C93.881 31.8747 94.5423 31.7467 95.481 31.448C96.4623 31.1493 97.5503 30.7653 98.745 30.296C99.9397 29.784 101.092 29.208 102.201 28.568C103.353 27.928 104.292 27.2453 105.017 26.52C105.785 25.7947 106.169 25.0907 106.169 24.408C106.169 24.0667 106.062 23.768 105.849 23.512C105.678 23.256 105.358 23.128 104.889 23.128C104.206 23.128 103.374 23.4693 102.393 24.152C101.454 24.792 100.494 25.6453 99.513 26.712C98.5317 27.7787 97.6143 28.9093 96.761 30.104C95.9077 31.2987 95.2037 32.4507 94.649 33.56C94.137 34.6267 93.881 35.5227 93.881 36.248C93.881 37.1013 94.137 37.7413 94.649 38.168C95.161 38.5947 95.9077 38.808 96.889 38.808C98.5957 38.808 100.196 38.4027 101.689 37.592C103.225 36.7387 104.612 35.7573 105.849 34.648C107.086 33.496 108.132 32.4293 108.985 31.448C109.838 30.424 110.414 29.7627 110.713 29.464C110.713 29.464 110.777 29.528 110.905 29.656C111.076 29.784 111.161 29.848 111.161 29.848C110.862 30.1893 110.286 30.872 109.433 31.896C108.58 32.92 107.513 34.0293 106.233 35.224C104.953 36.4187 103.502 37.4427 101.881 38.296C100.26 39.1493 98.5103 39.576 96.633 39.576ZM127.702 40.472C126.209 40.472 125.078 40.1947 124.31 39.64C123.542 39.0853 123.158 38.3387 123.158 37.4C123.158 36.7173 123.393 36.12 123.862 35.608C124.289 35.0533 124.801 34.6267 125.398 34.328C125.995 33.9867 126.465 33.816 126.806 33.816C127.275 33.816 127.595 33.9227 127.766 34.136C127.894 34.3067 127.958 34.4987 127.958 34.712C127.958 35.0533 127.766 35.3307 127.382 35.544C126.955 35.7573 126.614 35.864 126.358 35.864C126.059 35.864 125.803 35.7787 125.59 35.608C125.334 35.3947 125.206 35.288 125.206 35.288C124.993 35.3307 124.694 35.5653 124.31 35.992C123.926 36.4187 123.734 36.888 123.734 37.4C123.734 37.912 124.011 38.4027 124.566 38.872C125.121 39.3413 126.017 39.576 127.254 39.576C128.534 39.576 129.75 39.1493 130.902 38.296C132.097 37.4427 133.078 36.3547 133.846 35.032C134.614 33.7093 134.998 32.3653 134.998 31C134.998 30.5307 134.998 29.912 134.998 29.144C134.998 28.3333 134.998 27.672 134.998 27.16C134.998 26.52 135.105 25.7947 135.318 24.984C135.531 24.1307 135.766 23.3413 136.022 22.616C136.321 21.8907 136.555 21.4427 136.726 21.272C137.067 20.9733 137.323 20.888 137.494 21.016C137.665 21.144 137.707 21.272 137.622 21.4C137.579 21.4427 137.302 21.784 136.79 22.424C136.278 23.0213 135.638 23.768 134.87 24.664C134.102 25.56 133.334 26.456 132.566 27.352C131.798 28.248 131.115 29.0373 130.518 29.72C129.963 30.4027 129.643 30.808 129.558 30.936C129.345 31.2347 129.153 31.2987 128.982 31.128C128.811 30.9573 128.854 30.744 129.11 30.488C129.579 29.8907 130.155 29.1867 130.838 28.376C131.563 27.5227 132.289 26.6907 133.014 25.88C133.739 25.0693 134.358 24.3867 134.87 23.832C135.425 23.2347 135.723 22.8933 135.766 22.808C135.894 22.6373 136.001 22.3387 136.086 21.912C136.214 21.4853 136.363 21.08 136.534 20.696C136.747 20.312 137.003 20.12 137.302 20.12C138.027 20.12 138.39 20.376 138.39 20.888C138.39 21.272 138.091 21.7413 137.494 22.296C136.939 22.8507 136.619 23.2987 136.534 23.64C136.406 24.152 136.406 24.8773 136.534 25.816C136.705 26.712 136.875 27.736 137.046 28.888C137.259 30.04 137.366 31.256 137.366 32.536C137.366 34.2427 137.025 35.6293 136.342 36.696C135.659 37.72 134.806 38.5093 133.782 39.064C132.758 39.6187 131.691 39.9813 130.582 40.152C129.515 40.3653 128.555 40.472 127.702 40.472ZM137.558 36.056C136.449 36.056 135.723 35.8427 135.382 35.416C135.083 34.9893 134.977 34.4987 135.062 33.944C135.19 33.3467 135.339 32.8133 135.51 32.344L136.15 32.408C136.022 32.8347 135.894 33.2827 135.766 33.752C135.681 34.2213 135.745 34.6267 135.958 34.968C136.171 35.3093 136.726 35.48 137.622 35.48C138.262 35.48 138.987 35.1813 139.798 34.584C140.609 33.9867 141.398 33.2613 142.166 32.408C142.977 31.5547 143.659 30.7227 144.214 29.912L144.79 30.36C144.235 31.0427 143.553 31.832 142.742 32.728C141.974 33.624 141.142 34.4133 140.246 35.096C139.35 35.736 138.454 36.056 137.558 36.056ZM164.796 0.216C165.308 0.301332 165.841 0.365331 166.396 0.407997C166.993 0.407997 167.59 0.343998 168.188 0.216C168.145 0.258666 167.782 0.770665 167.1 1.752C166.417 2.69067 165.478 3.97067 164.284 5.592C163.132 7.17067 161.83 8.96267 160.38 10.968C158.972 12.9733 157.5 15.0427 155.964 17.176C154.47 19.2667 152.998 21.3147 151.548 23.32C150.14 25.2827 148.838 27.0747 147.644 28.696C146.492 30.3173 145.574 31.6187 144.892 32.6C144.209 33.5813 143.846 34.0933 143.803 34.136C143.803 34.136 143.825 34.1787 143.867 34.264C143.91 34.3067 143.931 34.3493 143.931 34.392C144.998 33.24 146.15 31.9813 147.388 30.616C148.625 29.2507 149.884 27.9707 151.164 26.776C152.444 25.5387 153.702 24.536 154.94 23.768C156.22 23 157.393 22.616 158.46 22.616C159.825 22.616 160.7 22.936 161.083 23.576C161.51 24.1733 161.724 24.7067 161.724 25.176C161.724 26.072 161.425 27.0533 160.828 28.12C160.23 29.1867 159.484 30.2533 158.588 31.32C157.734 32.3867 156.86 33.3893 155.964 34.328C155.11 35.224 154.385 36.0133 153.788 36.696C153.19 37.3787 152.892 37.8693 152.892 38.168C152.892 38.5093 153.148 38.7227 153.66 38.808C154.214 38.8507 154.662 38.872 155.004 38.872C155.985 38.872 157.052 38.5093 158.204 37.784C159.356 37.0587 160.486 36.1627 161.596 35.096C162.705 34.0293 163.708 32.984 164.604 31.96C165.5 30.936 166.182 30.1253 166.652 29.528L167.164 29.912C166.737 30.424 166.097 31.2133 165.244 32.28C164.39 33.304 163.366 34.392 162.172 35.544C161.02 36.6533 159.761 37.6133 158.396 38.424C157.03 39.192 155.601 39.576 154.108 39.576C153.553 39.576 152.913 39.4267 152.188 39.128C151.462 38.872 151.1 38.296 151.1 37.4C151.1 36.6747 151.377 35.8427 151.932 34.904C152.529 33.9227 153.254 32.92 154.108 31.896C154.961 30.8293 155.814 29.8053 156.668 28.824C157.564 27.8427 158.289 26.9467 158.844 26.136C159.441 25.2827 159.74 24.6 159.74 24.088C159.74 23.5333 159.334 23.256 158.524 23.256C157.5 23.256 156.262 23.7467 154.812 24.728C153.404 25.6667 151.91 26.9253 150.332 28.504C148.753 30.0827 147.174 31.7893 145.596 33.624C144.06 35.4587 142.63 37.272 141.307 39.064C140.753 38.9787 140.134 38.936 139.451 38.936C138.769 38.936 138.129 39.0213 137.531 39.192C137.531 39.192 137.915 38.6587 138.683 37.592C139.451 36.4827 140.497 35.0107 141.819 33.176C143.099 31.2987 144.55 29.208 146.172 26.904C147.793 24.5573 149.457 22.168 151.164 19.736C152.87 17.2613 154.534 14.872 156.156 12.568C157.777 10.2213 159.228 8.13066 160.508 6.296C161.83 4.41867 162.876 2.94667 163.644 1.88C164.412 0.770665 164.796 0.216 164.796 0.216ZM177.572 22.68C179.705 22.68 180.772 23.704 180.772 25.752C180.772 27.3307 180.409 28.952 179.684 30.616C178.959 32.2373 177.977 33.7307 176.74 35.096C175.503 36.4187 174.159 37.5067 172.708 38.36C171.257 39.1707 169.785 39.576 168.292 39.576C167.14 39.576 166.18 39.2987 165.412 38.744C164.601 38.1467 164.196 37.1867 164.196 35.864C164.196 34.6267 164.559 33.2613 165.284 31.768C166.009 30.232 166.991 28.7813 168.228 27.416C169.508 26.0507 170.937 24.92 172.516 24.024C174.137 23.128 175.823 22.68 177.572 22.68ZM178.276 23.576C177.551 23.576 176.697 23.896 175.716 24.536C174.735 25.176 173.732 26.008 172.708 27.032C171.684 28.056 170.724 29.1653 169.828 30.36C168.975 31.512 168.271 32.6427 167.716 33.752C167.204 34.8613 166.948 35.8 166.948 36.568C166.948 37.4213 167.183 38.0187 167.652 38.36C168.121 38.6587 168.655 38.808 169.252 38.808C170.233 38.808 171.343 38.4027 172.58 37.592C173.817 36.7387 175.012 35.672 176.164 34.392C177.316 33.112 178.255 31.768 178.98 30.36C179.748 28.9093 180.132 27.5867 180.132 26.392C180.132 25.2827 179.94 24.536 179.556 24.152C179.172 23.768 178.745 23.576 178.276 23.576ZM179.428 30.168C179.641 30.168 179.727 30.2533 179.684 30.424C179.684 30.552 179.577 30.616 179.364 30.616C179.193 30.616 178.937 30.8507 178.596 31.32C178.297 31.7467 178.02 32.1947 177.764 32.664C177.508 33.1333 177.38 33.3893 177.38 33.432C177.38 34.4133 177.743 34.904 178.468 34.904C179.151 34.904 179.919 34.584 180.772 33.944C181.668 33.304 182.521 32.5787 183.332 31.768C184.185 30.9147 184.868 30.168 185.38 29.528L185.892 29.976C185.337 30.616 184.633 31.384 183.78 32.28C182.927 33.1333 182.031 33.9013 181.092 34.584C180.153 35.224 179.279 35.544 178.468 35.544C177.785 35.544 177.316 35.3947 177.06 35.096C176.804 34.7973 176.676 34.264 176.676 33.496C176.676 32.472 177.017 31.6613 177.7 31.064C178.425 30.4667 179.001 30.168 179.428 30.168ZM195.809 15.512C196.321 15.5973 196.939 15.64 197.665 15.64C198.433 15.64 199.073 15.576 199.585 15.448C199.329 15.7893 198.923 16.3013 198.369 16.984C197.857 17.624 197.238 18.392 196.513 19.288C195.787 20.1413 195.019 21.0587 194.209 22.04C193.441 23.0213 192.63 24.0453 191.777 25.112C190.966 26.136 190.177 27.1387 189.409 28.12C188.641 29.0587 187.937 29.9547 187.297 30.808C186.699 31.6613 186.187 32.3867 185.761 32.984L185.953 33.176C187.019 32.2373 188.022 31.32 188.961 30.424C189.942 29.528 190.881 28.696 191.777 27.928C192.673 27.16 193.547 26.456 194.401 25.816C195.254 25.176 196.086 24.6213 196.897 24.152C197.707 23.6827 198.475 23.32 199.201 23.064C199.969 22.808 200.715 22.68 201.441 22.68C202.55 22.68 203.254 22.872 203.553 23.256C203.851 23.64 204.001 24.1307 204.001 24.728C204.001 25.9227 203.617 27.0747 202.849 28.184C202.081 29.2507 201.142 30.2747 200.033 31.256C198.923 32.2373 197.793 33.1333 196.641 33.944C195.531 34.7547 194.593 35.5013 193.825 36.184C193.057 36.824 192.673 37.3573 192.673 37.784C192.673 38.2107 192.822 38.5093 193.121 38.68C193.419 38.8507 193.782 38.936 194.209 38.936C195.531 38.936 196.918 38.4453 198.369 37.464C199.819 36.4827 201.249 35.288 202.657 33.88C204.065 32.4293 205.345 31 206.497 29.592L207.073 29.976C205.878 31.3413 204.555 32.7707 203.105 34.264C201.697 35.7573 200.225 37.016 198.689 38.04C197.195 39.064 195.723 39.576 194.273 39.576C193.078 39.576 192.289 39.32 191.905 38.808C191.563 38.2533 191.393 37.7413 191.393 37.272C191.393 36.0773 191.777 34.9467 192.545 33.88C193.313 32.8133 194.251 31.8107 195.361 30.872C196.47 29.9333 197.579 29.0587 198.689 28.248C199.798 27.4373 200.737 26.6907 201.505 26.008C202.273 25.3253 202.657 24.7067 202.657 24.152C202.657 23.896 202.571 23.704 202.401 23.576C202.23 23.4053 201.91 23.32 201.441 23.32C200.417 23.32 199.243 23.6827 197.921 24.408C196.598 25.0907 195.211 25.9867 193.76 27.096C192.353 28.2053 190.945 29.4 189.536 30.68C188.171 31.96 186.891 33.2187 185.697 34.456C184.544 35.6933 183.584 36.76 182.816 37.656C182.006 38.552 181.451 39.1493 181.152 39.448C180.939 39.704 180.512 40.28 179.872 41.176C179.232 42.072 178.507 43.1387 177.696 44.376C176.843 45.656 175.968 46.9787 175.072 48.344C174.176 49.7093 173.344 50.9893 172.576 52.184C171.766 53.4213 171.126 54.4453 170.656 55.256C170.144 56.0667 169.846 56.5573 169.76 56.728C169.59 56.856 169.206 56.9413 168.608 56.984C168.011 57.0267 167.435 57.0267 166.88 56.984C166.283 56.9413 165.878 56.856 165.664 56.728C165.707 56.6427 166.155 56.024 167.008 54.872C167.862 53.7627 168.971 52.248 170.336 50.328C171.702 48.4507 173.259 46.3173 175.008 43.928C176.715 41.5813 178.486 39.1493 180.32 36.632C182.155 34.1147 183.947 31.6613 185.697 29.272C187.446 26.84 189.046 24.6427 190.497 22.68C191.99 20.6747 193.206 19.0533 194.145 17.816C195.083 16.536 195.638 15.768 195.809 15.512Z" fill="#156039"/>
</svg>
